<?xml version="1.0" encoding="utf-8"?>
<!-- Generator: Adobe Illustrator 21.0.1, SVG Export Plug-In . SVG Version: 6.00 Build 0)  -->
<!DOCTYPE svg PUBLIC "-//W3C//DTD SVG 1.1//EN" "http://www.w3.org/Graphics/SVG/1.1/DTD/svg11.dtd">
<svg version="1.1" id="svg-icon" xmlns="http://www.w3.org/2000/svg" xmlns:xlink="http://www.w3.org/1999/xlink" x="0px" y="0px"
	 width="102" height="102" viewBox="0 0 136 136" style="enable-background:new 0 0 136 136;" xml:space="preserve">
<style type="text/css">
.icon-shape{fill:#6F6F6F;}
</style>
<g id="svg-icon">
	<path class="icon-shape" d="M85.8,51.6h-0.5c-0.9,0-1.8-0.6-2-1.5C82.9,49,82.5,47.9,82,47c-0.5-0.8-0.3-1.8,0.4-2.5l0.3-0.3
		c0.9-0.9,0.9-2.2,0-3.1l-1.2-1.2c-0.8-0.8-2.2-0.8-3,0l-0.3,0.3c-0.7,0.7-1.7,0.8-2.5,0.4c-1-0.5-2-1-3.1-1.3
		c-0.9-0.3-1.5-1.1-1.5-2v-0.4c0-1.2-1-2.2-2.1-2.2h-1.7c-1.2,0-2.1,1-2.1,2.1v0.5c0,0.9-0.6,1.8-1.5,2c-1.1,0.3-2.1,0.8-3.1,1.3
		c-0.8,0.5-1.9,0.3-2.5-0.4l-0.3-0.3c-0.9-0.9-2.2-0.9-3.1,0l-1.2,1.2c-0.8,0.8-0.8,2.2,0,3l0.3,0.3c0.7,0.7,0.8,1.7,0.4,2.5
		c-0.5,1-1,2-1.3,3.1c-0.3,0.9-1.1,1.5-2,1.5h-0.4c-1.2,0-2.2,1-2.2,2.1v1.7c0,1.2,1,2.1,2.1,2.1h0.5c0.9,0,1.8,0.6,2,1.5
		c0.3,1.1,0.8,2.1,1.3,3.1c0.5,0.8,0.3,1.8-0.4,2.5l-0.3,0.3c-0.9,0.9-0.9,2.2,0,3.1l1.2,1.2c0.8,0.8,2.2,0.8,3,0l0.3-0.3
		c0.7-0.7,1.7-0.8,2.5-0.4c1,0.5,2,1,3.1,1.3c0.9,0.3,1.5,1.1,1.5,2v0.4c0,1.2,1,2.2,2.1,2.2h1.7c1.2,0,2.1-1,2.1-2.1V72
		c0-0.9,0.6-1.8,1.5-2c1.1-0.3,2.1-0.8,3.1-1.3c0.8-0.5,1.9-0.3,2.5,0.4l0.3,0.3c0.9,0.9,2.2,0.9,3.1,0l1.2-1.2c0.8-0.8,0.8-2.2,0-3
		l-0.3-0.3c-0.7-0.7-0.8-1.7-0.4-2.5c0.5-1,1-2,1.3-3.1c0.3-0.9,1.1-1.5,2-1.5h0.4c1.2,0,2.2-1,2.2-2.1V54
		C87.9,52.6,87,51.6,85.8,51.6z M67.9,61.3c-3.7,0-6.7-3-6.7-6.7c0-3.7,3-6.7,6.7-6.7c3.7,0,6.7,3,6.7,6.7
		C74.6,58.3,71.6,61.3,67.9,61.3z"/>
	<path class="icon-shape" d="M81.9,104h-28c-2.2,0-4,1.8-4,4s1.8,4,4,4H55l3.2,7.2c0.3,0.5,0.8,0.8,1.3,0.8h16.8c0.6,0,1.1-0.3,1.3-0.8
		l3.2-7.2h1.1c2.2,0,4-1.8,4-4S84.1,104,81.9,104z"/>
	<path class="icon-shape" d="M104.9,50.6C103.9,32,89,17.2,70.4,16.1C69.6,16,68.9,16,68,16c-0.1,0-0.1,0-0.2,0c-0.8,0-1.5,0-2.2,0.1
		C47,17.2,32.1,32,31.1,50.6c-0.5,8.6,1.9,16.8,7,23.7c0.8,1.1,1.6,2.2,2.4,3.2c2.9,3.9,5.7,7.5,7.7,12l1.6,3.2
		c-1,0.7-1.7,1.9-1.7,3.3c0,2.2,1.8,4,4,4h32c2.2,0,4-1.8,4-4c0-1.4-0.7-2.7-1.9-3.4l1.6-3.2c1.9-4.2,4.6-7.8,7.5-11.5
		c0.9-1.2,1.8-2.4,2.8-3.7C103,67.3,105.4,59.1,104.9,50.6z M94.7,71.9c-0.9,1.2-1.8,2.4-2.7,3.6c-2.9,3.8-5.9,7.6-7.9,12.2L82,92
		H53.9l-2.1-4.2c-2.2-4.8-5.1-8.7-8.1-12.7c-0.8-1-1.6-2.1-2.4-3.2c-4.5-6.2-6.6-13.5-6.2-21.1C36,34.6,49.5,21.1,65.9,20.1
		c0.6,0,1.3-0.1,2.1-0.1c0.1,0,0.1,0,0.2,0c0.7,0,1.4,0,1.9,0.1c16.4,1,29.9,14.5,30.8,30.7C101.4,58.4,99.2,65.7,94.7,71.9z"/>
</g>
</svg>