<?xml version="1.0" encoding="utf-8"?>
<!-- Generator: Adobe Illustrator 21.0.2, SVG Export Plug-In . SVG Version: 6.00 Build 0)  -->
<svg version="1.1" id="svg-icon" xmlns="http://www.w3.org/2000/svg" xmlns:xlink="http://www.w3.org/1999/xlink" x="0px" y="0px"
	 width="102" height="102" viewBox="0 0 136 136" style="enable-background:new 0 0 136 136;" xml:space="preserve">
<style type="text/css">
.icon-shape{fill:#6F6F6F;}
</style>
<g id="svg-icon">
	<path class="icon-shape" d="M110.9,107.1H28.6v-78c0-1.1-0.9-2-2-2s-2,0.9-2,2v80c0,1.1,0.9,2,2,2h84.2c1.1,0,2-0.9,2-2
		S112,107.1,110.9,107.1z"/>
	<path class="icon-shape" d="M44.3,99.1c3.9-0.3,6.7-3.7,6.4-7.5c-0.1-1.9-1-3.5-2.3-4.7l14-30.2c0.5,0.1,1,0.1,1.6,0.1
		c0.7-0.1,1.4-0.2,2.1-0.5l11.3,14c-0.9,1.3-1.3,2.9-1.2,4.5c0.3,3.9,3.7,6.7,7.5,6.4s6.7-3.7,6.4-7.5c-0.1-1.7-0.9-3.2-2-4.3
		l1.2-2.1l-3.5-2l-1.2,2.2c-0.7-0.1-1.4-0.2-2.1-0.1c-0.7,0.1-1.4,0.2-2.1,0.5l-11.3-14c0.9-1.3,1.3-2.9,1.2-4.5
		c-0.3-3.9-3.7-6.7-7.5-6.4c-3.9,0.3-6.7,3.7-6.4,7.5c0.1,1.9,1,3.5,2.3,4.7l-14,30.2c-0.5-0.1-1-0.1-1.6-0.1
		c-3.9,0.3-6.7,3.7-6.4,7.5C37,96.5,40.4,99.4,44.3,99.1z"/>
	<rect x="88.6" y="59" transform="matrix(0.5013 -0.8653 0.8653 0.5013 -7.5623 108.8612)" class="icon-shape" width="4" height="4"/>
	<rect x="92.7" y="52" transform="matrix(0.5013 -0.8653 0.8653 0.5013 0.5123 108.879)" class="icon-shape" width="4" height="4"/>
	<path class="icon-shape" d="M97.2,45.7l-1.2,2l3.5,2l1.2-2c0.7,0.2,1.4,0.3,2.1,0.3c0.2,0,0.4,0,0.6,0c4.4-0.4,7.7-4.2,7.3-8.6v0
		c-0.2-2.1-1.2-4.1-2.8-5.5c-1.6-1.4-3.7-2.1-5.8-1.9c-2.1,0.2-4.1,1.2-5.5,2.8c-1.4,1.6-2.1,3.7-1.9,5.8
		C95,42.6,95.9,44.4,97.2,45.7z M99.8,37.4c0.7-0.8,1.7-1.3,2.7-1.4c0.1,0,0.2,0,0.3,0c0.9,0,1.9,0.3,2.6,1c0.8,0.7,1.3,1.7,1.4,2.7
		c0.2,2.2-1.5,4.1-3.7,4.3c-2.2,0.2-4.1-1.5-4.3-3.7C98.7,39.3,99.1,38.2,99.8,37.4z"/>
</g>
</svg>
