<?xml version="1.0" encoding="utf-8"?>
<!-- Generator: Adobe Illustrator 21.0.1, SVG Export Plug-In . SVG Version: 6.00 Build 0)  -->
<!DOCTYPE svg PUBLIC "-//W3C//DTD SVG 1.1//EN" "http://www.w3.org/Graphics/SVG/1.1/DTD/svg11.dtd">
<svg version="1.1" id="svg-icon" xmlns="http://www.w3.org/2000/svg" xmlns:xlink="http://www.w3.org/1999/xlink" x="0px" y="0px"
	 width="102" height="102" viewBox="0 0 136 136" style="enable-background:new 0 0 136 136;" xml:space="preserve">
<style type="text/css">
.icon-shape{fill:#6F6F6F;}
</style>
<g id="svg-icon">
	<polygon class="icon-shape" points="70,60.5 66,60.5 66,65 61.5,65 61.5,69 66,69 66,73.5 70,73.5 70,69 74.5,69 74.5,65 70,65 	"/>
	<path class="icon-shape" d="M109.58,57.03c-4.21-15.93-17.35-28.26-33.73-31.3l-9.89-5.71v5.03c-19.02,0.89-34.84,14.2-39.53,31.98
		C20.62,57.33,16,62.12,16,68s4.62,10.67,10.42,10.97c4.43,16.79,18.79,29.58,36.39,31.71l9.19,5.3v-5.17
		c18.14-1.68,33.04-14.67,37.58-31.84C115.38,78.67,120,73.88,120,68S115.38,57.33,109.58,57.03z M27,75c-0.5,0-0.98-0.05-1.45-0.15
		C22.38,74.18,20,71.36,20,68s2.38-6.18,5.55-6.85C26.02,61.05,26.5,61,27,61c0.9,0,1.76,0.18,2.55,0.49C32.15,62.51,34,65.04,34,68
		s-1.85,5.49-4.45,6.51C28.76,74.82,27.9,75,27,75z M72,106.8v-4.78l-8.22,4.75c-16.01-1.73-29.13-13.19-33.34-28.32
		c4.09-1.34,7.12-5.01,7.52-9.45h5.76l5.75,3.99V69H57v-4h-7.54v-3.99L43.71,65h-6.13c-1-3.52-3.69-6.31-7.14-7.45
		c4.4-15.82,18.54-27.62,35.53-28.5v4.93l7.87-4.54c15.28,2.3,27.67,13.49,31.74,28.12c-3.45,1.13-6.15,3.93-7.14,7.45h-8.97v-3.99
		L83.71,65H79v4h4.71l5.75,3.99V69h8.59c0.4,4.43,3.43,8.1,7.52,9.45C101.33,93.65,88.11,105.15,72,106.8z M110.45,74.85
		C109.98,74.95,109.5,75,109,75c-0.9,0-1.76-0.18-2.55-0.49c-2.6-1.02-4.45-3.55-4.45-6.51s1.85-5.49,4.45-6.51
		C107.24,61.18,108.1,61,109,61c0.5,0,0.98,0.05,1.45,0.15c3.17,0.67,5.55,3.48,5.55,6.85S113.62,74.18,110.45,74.85z"/>
</g>
</svg>
