<?xml version="1.0" encoding="utf-8"?>
<!-- Generator: Adobe Illustrator 21.0.1, SVG Export Plug-In . SVG Version: 6.00 Build 0)  -->
<!DOCTYPE svg PUBLIC "-//W3C//DTD SVG 1.1//EN" "http://www.w3.org/Graphics/SVG/1.1/DTD/svg11.dtd">
<svg version="1.1" id="svg-icon" xmlns="http://www.w3.org/2000/svg" xmlns:xlink="http://www.w3.org/1999/xlink" x="0px" y="0px"
	 width="102" height="102" viewBox="0 0 136 136" style="enable-background:new 0 0 136 136;" xml:space="preserve">
<style type="text/css">
.icon-shape{fill:#6F6F6F;}
</style>
<g id="svg-icon">
	<path class="icon-shape" d="M113.59,82.75l-4.71-21.18c-0.13-11.98-4.99-23.1-13.7-31.33C86.45,21.98,75,17.76,62.96,18.36
		c-22.81,1.25-40.93,20.05-41.24,42.81c-0.15,10.67,3.56,21.04,10.46,29.2c5.84,6.83,9.23,15.17,9.81,24.12
		c0.05,1.78,1.63,3.26,3.49,3.26h39.8c1.92,0,3.49-1.57,3.49-3.49v-9.77h4.56c5.13,0,9.3-4.17,9.3-9.3v-7.99h7.54
		c1.12,0,2.11-0.49,2.75-1.34C113.62,85.04,113.89,83.81,113.59,82.75z M98.63,83.19v11.99c0,2.92-2.38,5.3-5.3,5.3h-8.56v13.27
		H45.95c-0.72-9.63-4.42-18.6-10.72-25.97c-6.28-7.42-9.65-16.84-9.51-26.55C26,40.56,42.46,23.49,63.17,22.36
		c10.93-0.54,21.33,3.29,29.27,10.79c7.96,7.52,12.38,17.7,12.45,28.66l4.71,21.39H98.63z"/>
	<path class="icon-shape" d="M59.64,69.4h11.33c0.89,0,1.49-0.6,1.49-1.49V56.58c0-0.89-0.6-1.49-1.49-1.49H59.64
		c-0.89,0-1.49,0.6-1.49,1.49V67.9C58.15,68.8,58.74,69.4,59.64,69.4z M61.13,58.07h8.35v8.35h-8.35V58.07z"/>
	<path class="icon-shape" d="M86.47,54.34c0.89,0,1.49-0.6,1.49-1.49s-0.6-1.49-1.49-1.49H81.7v-4.17c0-0.89-0.6-1.49-1.49-1.49h-4.17
		v-4.77c0-0.89-0.6-1.49-1.49-1.49s-1.49,0.6-1.49,1.49v4.77h-6.41v-4.77c0-0.89-0.6-1.49-1.49-1.49c-0.89,0-1.49,0.6-1.49,1.49
		v4.77h-6.41v-4.77c0-0.89-0.6-1.49-1.49-1.49c-0.89,0-1.49,0.6-1.49,1.49v4.77H50.1c-0.89,0-1.49,0.6-1.49,1.49v4.17h-4.77
		c-0.89,0-1.49,0.6-1.49,1.49s0.6,1.49,1.49,1.49h4.77v6.41h-4.77c-0.89,0-1.49,0.6-1.49,1.49c0,0.89,0.6,1.49,1.49,1.49h4.77v6.41
		h-4.77c-0.89,0-1.49,0.6-1.49,1.49s0.6,1.49,1.49,1.49h4.77v4.17c0,0.89,0.6,1.49,1.49,1.49h4.17v4.77c0,0.89,0.6,1.49,1.49,1.49
		c0.89,0,1.49-0.6,1.49-1.49v-4.77h6.41v4.77c0,0.89,0.6,1.49,1.49,1.49c0.89,0,1.49-0.6,1.49-1.49v-4.77h6.41v4.77
		c0,0.89,0.6,1.49,1.49,1.49s1.49-0.6,1.49-1.49v-4.77h4.17c0.89,0,1.49-0.6,1.49-1.49v-4.17h4.77c0.89,0,1.49-0.6,1.49-1.49
		s-0.6-1.49-1.49-1.49H81.7v-6.41h4.77c0.89,0,1.49-0.6,1.49-1.49c0-0.89-0.6-1.49-1.49-1.49H81.7v-6.41H86.47z M78.87,75.8
		c-8.2,0-18.33,0-27.13,0c0-8.2,0-18.33,0-27.13c8.2,0,18.33,0,27.13,0C78.87,56.88,78.87,67.01,78.87,75.8z"/>
</g>
</svg>
